<?xml version="1.0" encoding="iso-8859-1"?>
<!-- Generator: Adobe Illustrator 17.1.0, SVG Export Plug-In . SVG Version: 6.00 Build 0)  -->
<!DOCTYPE svg PUBLIC "-//W3C//DTD SVG 1.1//EN" "http://www.w3.org/Graphics/SVG/1.1/DTD/svg11.dtd">
<svg version="1.1" id="Capa_1" xmlns="http://www.w3.org/2000/svg" xmlns:xlink="http://www.w3.org/1999/xlink" x="0px" y="0px"
	 viewBox="0 0 511 511" style="enable-background:new 0 0 511 511;" xml:space="preserve">
<g>
	<path d="M227.027,339H479.5c17.369,0,31.5-14.131,31.5-31.5v-200c0-4.142-3.358-7.5-7.5-7.5H96.876L81.333,69.776
		C73.156,53.877,56.97,44,39.092,44H7.5C3.358,44,0,47.358,0,51.5S3.358,59,7.5,59h31.592c12.232,0,23.307,6.758,28.902,17.636
		L191.9,317.565c2.174,4.228,5.035,7.936,8.4,11.035l-44.695,59.594C135.646,390.157,120,407.034,120,427.5
		c0,21.78,17.72,39.5,39.5,39.5s39.5-17.72,39.5-39.5c0-9.25-3.205-17.761-8.551-24.5h250.101c-5.346,6.739-8.551,15.25-8.551,24.5
		c0,21.78,17.72,39.5,39.5,39.5s39.5-17.72,39.5-39.5S493.28,388,471.5,388h-297l38.637-51.516
		C217.499,338.115,222.185,339,227.027,339z M159.5,452c-13.509,0-24.5-10.991-24.5-24.5c0-13.506,10.986-24.495,24.491-24.5
		c0.001,0,0.002,0,0.003,0c0.003,0,0.005,0,0.008,0C173.01,403.001,184,413.991,184,427.5C184,441.009,173.009,452,159.5,452z
		 M496,427.5c0,13.509-10.991,24.5-24.5,24.5S447,441.009,447,427.5s10.991-24.5,24.5-24.5S496,413.991,496,427.5z M104.591,115H496
		v192.5c0,9.098-7.402,16.5-16.5,16.5H227.027c-9.222,0-17.57-5.094-21.788-13.295L104.591,115z"/>
	<path d="M159.5,420c-1.97,0-3.91,0.8-5.3,2.2c-1.4,1.39-2.2,3.33-2.2,5.3c0,1.98,0.8,3.91,2.2,5.3c1.39,1.4,3.33,2.2,5.3,2.2
		c1.97,0,3.91-0.8,5.3-2.2c1.4-1.39,2.2-3.33,2.2-5.3c0-1.97-0.8-3.91-2.2-5.3C163.41,420.8,161.47,420,159.5,420z"/>
	<path d="M466.2,422.2c-1.4,1.39-2.2,3.33-2.2,5.3c0,1.98,0.8,3.91,2.2,5.3c1.39,1.4,3.33,2.2,5.3,2.2c1.97,0,3.91-0.8,5.3-2.2
		c1.4-1.39,2.2-3.32,2.2-5.3c0-1.97-0.8-3.91-2.2-5.3c-1.39-1.4-3.33-2.2-5.3-2.2C469.53,420,467.59,420.8,466.2,422.2z"/>
	<path d="M431.5,291c4.142,0,7.5-3.358,7.5-7.5v-128c0-4.142-3.358-7.5-7.5-7.5s-7.5,3.358-7.5,7.5v128
		C424,287.642,427.358,291,431.5,291z"/>
	<path d="M383.5,291c4.142,0,7.5-3.358,7.5-7.5v-128c0-4.142-3.358-7.5-7.5-7.5s-7.5,3.358-7.5,7.5v128
		C376,287.642,379.358,291,383.5,291z"/>
	<path d="M335.5,291c4.142,0,7.5-3.358,7.5-7.5v-128c0-4.142-3.358-7.5-7.5-7.5s-7.5,3.358-7.5,7.5v128
		C328,287.642,331.358,291,335.5,291z"/>
	<path d="M287.5,291c4.142,0,7.5-3.358,7.5-7.5v-128c0-4.142-3.358-7.5-7.5-7.5s-7.5,3.358-7.5,7.5v128
		C280,287.642,283.358,291,287.5,291z"/>
	<path d="M239.5,291c4.142,0,7.5-3.358,7.5-7.5v-128c0-4.142-3.358-7.5-7.5-7.5s-7.5,3.358-7.5,7.5v128
		C232,287.642,235.358,291,239.5,291z"/>
</g>
<g>
</g>
<g>
</g>
<g>
</g>
<g>
</g>
<g>
</g>
<g>
</g>
<g>
</g>
<g>
</g>
<g>
</g>
<g>
</g>
<g>
</g>
<g>
</g>
<g>
</g>
<g>
</g>
<g>
</g>
</svg>
